<?xml version="1.0" encoding="UTF-8"?>
<!--
  Placeholder gutter icon for @ClassBuilder-generated members.
  12x12 monochrome chili pepper silhouette. Replace this file to swap
  the icon; no code change is required.
-->
<svg xmlns="http://www.w3.org/2000/svg" width="12" height="12" viewBox="0 0 12 12">
  <path d="M4.6 2.3c-.1-.5.2-.9.6-1 .4 0 .7.2.8.6.3.9.4 1.8-.1 2.2.6-.1 1.3.1 1.9.5 2 1.3 2.2 3.6 1 5.2-1.1 1.4-3 1.8-4.7.9-1.6-.9-2.6-2.8-2.2-4.4.3-1.4 1.4-2.5 2.7-3z"
        fill="#D64541" stroke="#8B2D29" stroke-width=".4"/>
  <path d="M4.6 2.1c.1-.5.5-.8 1-.7.5.1.8.6.7 1.1l-.2.9-1.1.2z"
        fill="#4F9D46" stroke="#2F6B2A" stroke-width=".3"/>
</svg>
